# xmcd CD database file
#
# Track frame offsets:
#	150
#	17316
#	37777
#	60120
#	75201
#	90670
#	110452
#	124195
#	146829
#	164726
#	192470
#	218707
#	235851
#	268512
#	288127
#
# Disc length: 4014 seconds
#
# Revision: 8
# Processed by: cddbd v1.5.1PL0 Copyright (c) Steve Scherf et al.
# Submitted via: CDex 1.51
#
DISCID=be0fac0f
DTITLE=Bonnie Pink - Bonnie's Kitchen #1
DYEAR=1999
DGENRE=Pop
TTITLE0=Heaven's Kitchen
TTITLE1=It's gonna rain!
TTITLE2=Do You Crash?
TTITLE3=かなわないこと
TTITLE4=He
TTITLE5=犬と月 (Full Length Version)
TTITLE6=Your Butterfly
TTITLE7=金魚
TTITLE8=Lie Lie Lie
TTITLE9=Surprise!
TTITLE10=オレンジ
TTITLE11=背中
TTITLE12=Maze Of Love
TTITLE13=たとえばの話
TTITLE14=One Night With Chocolate
EXTD=YEAR: 1999
EXTT0=
EXTT1=
EXTT2=
EXTT3=
EXTT4=
EXTT5=
EXTT6=
EXTT7=
EXTT8=
EXTT9=
EXTT10=
EXTT11=
EXTT12=
EXTT13=
EXTT14=
PLAYORDER=
